<?xml version="1.0" encoding="UTF-8"?>
<svg xmlns="http://www.w3.org/2000/svg" width="351" height="281" viewBox="0 0 351 281">
  <defs>
    <filter id="softShadow" x="-20%" y="-20%" width="140%" height="140%" color-interpolation-filters="sRGB">
      <feDropShadow dx="0" dy="6" stdDeviation="6" flood-color="#000000" flood-opacity="0.20"/>
      <feDropShadow dx="0" dy="14" stdDeviation="14" flood-color="#000000" flood-opacity="0.12"/>
    </filter>

    <linearGradient id="blueGrad" x1="60" y1="20" x2="311" y2="271" gradientUnits="userSpaceOnUse">
      <stop offset="0" stop-color="#7EDBFF"/>
      <stop offset="0.45" stop-color="#2F7BFF"/>
      <stop offset="1" stop-color="#1B5BFF"/>
    </linearGradient>
    <linearGradient id="orangeGrad" x1="341" y1="10" x2="80" y2="271" gradientUnits="userSpaceOnUse">
      <stop offset="0" stop-color="#FFD49A"/>
      <stop offset="0.45" stop-color="#FF9C33"/>
      <stop offset="1" stop-color="#FF6A2B"/>
    </linearGradient>

    <!-- soft highlight -->
    <linearGradient id="blueHi" x1="40" y1="0" x2="175.5" y2="281" gradientUnits="userSpaceOnUse">
      <stop offset="0" stop-color="#FFFFFF" stop-opacity="0.65"/>
      <stop offset="0.5" stop-color="#FFFFFF" stop-opacity="0.12"/>
      <stop offset="1" stop-color="#FFFFFF" stop-opacity="0"/>
    </linearGradient>
    <linearGradient id="orangeHi" x1="351" y1="0" x2="175.5" y2="281" gradientUnits="userSpaceOnUse">
      <stop offset="0" stop-color="#FFFFFF" stop-opacity="0.60"/>
      <stop offset="0.5" stop-color="#FFFFFF" stop-opacity="0.12"/>
      <stop offset="1" stop-color="#FFFFFF" stop-opacity="0"/>
    </linearGradient>
  </defs>

  <g filter="url(#softShadow)">
    <path d="M 270.00 270.50 L 72.00 270.50 L 64.00 267.50 L 56.50 261.00 L 52.50 252.00 L 52.50 245.00 L 57.50 235.00 L 71.00 225.50 L 262.00 225.50 L 274.00 221.50 L 284.00 213.50 L 291.50 203.00 L 293.50 183.00 L 287.50 168.00 L 277.00 157.50 L 268.00 153.50 L 250.00 153.50 L 247.50 156.00 L 247.50 171.00 L 243.00 177.50 L 238.00 178.50 L 195.00 153.50 L 170.50 135.00 L 170.50 128.00 L 178.00 120.50 L 232.00 83.50 L 242.00 82.50 L 247.50 89.00 L 247.50 105.00 L 250.00 107.50 L 277.00 108.50 L 302.00 119.50 L 313.00 127.50 L 331.50 151.00 L 340.50 181.00 L 337.50 214.00 L 324.50 240.00 L 303.00 259.50 L 287.00 266.50 L 270.00 270.50 Z" fill="url(#orangeGrad)"/>
    <path d="M 270.00 270.50 L 72.00 270.50 L 64.00 267.50 L 56.50 261.00 L 52.50 252.00 L 52.50 245.00 L 57.50 235.00 L 71.00 225.50 L 262.00 225.50 L 274.00 221.50 L 284.00 213.50 L 291.50 203.00 L 293.50 183.00 L 287.50 168.00 L 277.00 157.50 L 268.00 153.50 L 250.00 153.50 L 247.50 156.00 L 247.50 171.00 L 243.00 177.50 L 238.00 178.50 L 195.00 153.50 L 170.50 135.00 L 170.50 128.00 L 178.00 120.50 L 232.00 83.50 L 242.00 82.50 L 247.50 89.00 L 247.50 105.00 L 250.00 107.50 L 277.00 108.50 L 302.00 119.50 L 313.00 127.50 L 331.50 151.00 L 340.50 181.00 L 337.50 214.00 L 324.50 240.00 L 303.00 259.50 L 287.00 266.50 L 270.00 270.50 Z" fill="url(#orangeHi)" opacity="0.55"/>
    <path d="M 270.00 70.50 L 182.00 69.50 L 169.00 62.50 L 162.50 54.00 L 161.50 37.00 L 164.00 34.50 L 176.00 35.50 L 179.50 40.00 L 180.50 48.00 L 189.00 53.50 L 265.00 53.50 L 273.00 50.50 L 277.50 44.00 L 277.50 36.00 L 271.00 28.50 L 224.00 28.50 L 219.50 25.00 L 213.50 14.00 L 219.00 10.50 L 272.00 10.50 L 281.00 14.50 L 293.50 27.00 L 295.50 48.00 L 294.50 52.00 L 285.00 62.50 L 270.00 70.50 Z" fill="url(#orangeGrad)"/>
    <path d="M 270.00 70.50 L 182.00 69.50 L 169.00 62.50 L 162.50 54.00 L 161.50 37.00 L 164.00 34.50 L 176.00 35.50 L 179.50 40.00 L 180.50 48.00 L 189.00 53.50 L 265.00 53.50 L 273.00 50.50 L 277.50 44.00 L 277.50 36.00 L 271.00 28.50 L 224.00 28.50 L 219.50 25.00 L 213.50 14.00 L 219.00 10.50 L 272.00 10.50 L 281.00 14.50 L 293.50 27.00 L 295.50 48.00 L 294.50 52.00 L 285.00 62.50 L 270.00 70.50 Z" fill="url(#orangeHi)" opacity="0.55"/>
    <path d="M 114.00 211.50 L 108.00 210.50 L 103.50 206.00 L 103.50 193.00 L 100.00 186.50 L 81.00 186.50 L 58.00 179.50 L 40.00 169.50 L 24.50 153.00 L 14.50 135.00 L 9.50 112.00 L 10.50 93.00 L 15.50 75.00 L 25.50 57.00 L 51.00 35.50 L 67.00 15.50 L 73.00 12.50 L 198.00 11.50 L 214.50 24.00 L 218.50 34.00 L 218.50 44.00 L 216.00 46.50 L 205.00 46.50 L 198.50 31.00 L 191.00 26.50 L 79.00 27.50 L 71.50 33.00 L 71.50 46.00 L 78.00 52.50 L 157.00 53.50 L 165.50 66.00 L 163.00 69.50 L 83.00 69.50 L 71.00 74.50 L 59.50 86.00 L 56.50 92.00 L 54.50 109.00 L 58.50 122.00 L 62.50 129.00 L 76.00 139.50 L 93.00 142.50 L 100.00 141.50 L 102.50 139.00 L 103.50 121.00 L 109.00 116.50 L 113.00 116.50 L 177.50 159.00 L 177.50 168.00 L 172.00 173.50 L 114.00 211.50 Z" fill="url(#blueGrad)"/>
    <path d="M 114.00 211.50 L 108.00 210.50 L 103.50 206.00 L 103.50 193.00 L 100.00 186.50 L 81.00 186.50 L 58.00 179.50 L 40.00 169.50 L 24.50 153.00 L 14.50 135.00 L 9.50 112.00 L 10.50 93.00 L 15.50 75.00 L 25.50 57.00 L 51.00 35.50 L 67.00 15.50 L 73.00 12.50 L 198.00 11.50 L 214.50 24.00 L 218.50 34.00 L 218.50 44.00 L 216.00 46.50 L 205.00 46.50 L 198.50 31.00 L 191.00 26.50 L 79.00 27.50 L 71.50 33.00 L 71.50 46.00 L 78.00 52.50 L 157.00 53.50 L 165.50 66.00 L 163.00 69.50 L 83.00 69.50 L 71.00 74.50 L 59.50 86.00 L 56.50 92.00 L 54.50 109.00 L 58.50 122.00 L 62.50 129.00 L 76.00 139.50 L 93.00 142.50 L 100.00 141.50 L 102.50 139.00 L 103.50 121.00 L 109.00 116.50 L 113.00 116.50 L 177.50 159.00 L 177.50 168.00 L 172.00 173.50 L 114.00 211.50 Z" fill="url(#blueHi)" opacity="0.55"/>
  </g>
</svg>